# xmcd CD database file
#
# Track frame offsets:
#	150
#	21340
#	54423
#	76922
#	126367
#	151804
#	185759
#	225410
#	266138
#
# Disc length: 3739 seconds
#
# Revision: 0
# Processed by: cddbd v1.5.2PL0 Copyright (c) Steve Scherf et al.
# Submitted via: CDex 1.70beta2
#
DISCID=700e9909
DTITLE=Nicolas Genest - Sur les bords du Gange
DYEAR=2012
DGENRE=Jazz
TTITLE0=Tamul's walk
TTITLE1=Mysore
TTITLE2=Amrita
TTITLE3=Sur les bords du Gange
TTITLE4=Yaad
TTITLE5=Nee padame
TTITLE6=Jaï
TTITLE7=Paban
TTITLE8=Badaling
EXTD=YEAR: 2012
EXTT0=
EXTT1=
EXTT2=
EXTT3=
EXTT4=
EXTT5=
EXTT6=
EXTT7=
EXTT8=
PLAYORDER=
